<?xml version="1.0" encoding="UTF-8" standalone="no"?>
<!DOCTYPE svg PUBLIC "-//W3C//DTD SVG 1.1//EN"
 "http://www.w3.org/Graphics/SVG/1.1/DTD/svg11.dtd">
<!-- Generated by graphviz version 2.40.1 (20161225.0304)
 -->
<!-- Title: Tree Pages: 1 -->
<svg width="504pt" height="305pt"
 viewBox="0.00 0.00 504.00 305.21" xmlns="http://www.w3.org/2000/svg" xmlns:xlink="http://www.w3.org/1999/xlink">
<g id="graph0" class="graph" transform="scale(.7522 .7522) rotate(0) translate(4 401.7339)">
<title>Tree</title>
<polygon fill="#ffffff" stroke="transparent" points="-4,4 -4,-401.7339 666,-401.7339 666,4 -4,4"/>
<!-- 0 -->
<g id="node1" class="node">
<title>0</title>
<path fill="#eda775" stroke="#000000" d="M569,-395C569,-395 433,-395 433,-395 427,-395 421,-389 421,-383 421,-383 421,-339 421,-339 421,-333 427,-327 433,-327 433,-327 569,-327 569,-327 575,-327 581,-333 581,-339 581,-339 581,-383 581,-383 581,-389 575,-395 569,-395"/>
<text text-anchor="start" x="429" y="-379.8" font-family="Helvetica,sans-Serif" font-size="14.00" fill="#000000">Coupler_System ≤ 0.5</text>
<text text-anchor="start" x="433" y="-364.8" font-family="Helvetica,sans-Serif" font-size="14.00" fill="#000000">squared_error = 0.48</text>
<text text-anchor="start" x="440.5" y="-349.8" font-family="Helvetica,sans-Serif" font-size="14.00" fill="#000000">samples = 404710</text>
<text text-anchor="start" x="461" y="-334.8" font-family="Helvetica,sans-Serif" font-size="14.00" fill="#000000">value = 10.1</text>
</g>
<!-- 1 -->
<g id="node2" class="node">
<title>1</title>
<path fill="#eb9d64" stroke="#000000" d="M395,-284C395,-284 267,-284 267,-284 261,-284 255,-278 255,-272 255,-272 255,-228 255,-228 255,-222 261,-216 267,-216 267,-216 395,-216 395,-216 401,-216 407,-222 407,-228 407,-228 407,-272 407,-272 407,-278 401,-284 395,-284"/>
<text text-anchor="start" x="267.5" y="-268.8" font-family="Helvetica,sans-Serif" font-size="14.00" fill="#000000">YearMade ≤ 1991.5</text>
<text text-anchor="start" x="263" y="-253.8" font-family="Helvetica,sans-Serif" font-size="14.00" fill="#000000">squared_error = 0.42</text>
<text text-anchor="start" x="270.5" y="-238.8" font-family="Helvetica,sans-Serif" font-size="14.00" fill="#000000">samples = 360847</text>
<text text-anchor="start" x="287" y="-223.8" font-family="Helvetica,sans-Serif" font-size="14.00" fill="#000000">value = 10.21</text>
</g>
<!-- 0&#45;&gt;1 -->
<g id="edge1" class="edge">
<title>0&#45;&gt;1</title>
<path fill="none" stroke="#000000" d="M448.6072,-326.7906C430.5871,-315.0245 410.2623,-301.7536 391.6412,-289.5951"/>
<polygon fill="#000000" stroke="#000000" points="393.5065,-286.633 383.2198,-284.0964 389.6794,-292.4943 393.5065,-286.633"/>
<text text-anchor="middle" x="388.3569" y="-304.8629" font-family="Helvetica,sans-Serif" font-size="14.00" fill="#000000">True</text>
</g>
<!-- 2 -->
<g id="node7" class="node">
<title>2</title>
<path fill="#ffffff" stroke="#000000" d="M650,-54.5C650,-54.5 522,-54.5 522,-54.5 516,-54.5 510,-48.5 510,-42.5 510,-42.5 510,-13.5 510,-13.5 510,-7.5 516,-1.5 522,-1.5 522,-1.5 650,-1.5 650,-1.5 656,-1.5 662,-7.5 662,-13.5 662,-13.5 662,-42.5 662,-42.5 662,-48.5 656,-54.5 650,-54.5"/>
<text text-anchor="start" x="518" y="-39.3" font-family="Helvetica,sans-Serif" font-size="14.00" fill="#000000">squared_error = 0.12</text>
<text text-anchor="start" x="530" y="-24.3" font-family="Helvetica,sans-Serif" font-size="14.00" fill="#000000">samples = 43863</text>
<text text-anchor="start" x="546" y="-9.3" font-family="Helvetica,sans-Serif" font-size="14.00" fill="#000000">value = 9.21</text>
</g>
<!-- 0&#45;&gt;2 -->
<g id="edge6" class="edge">
<title>0&#45;&gt;2</title>
<path fill="none" stroke="#000000" d="M509.697,-326.9281C525.8025,-263.8327 560.1332,-129.337 576.6894,-64.4755"/>
<polygon fill="#000000" stroke="#000000" points="580.1064,-65.2401 579.1885,-54.6851 573.3239,-63.5088 580.1064,-65.2401"/>
<text text-anchor="middle" x="591.9448" y="-72.4857" font-family="Helvetica,sans-Serif" font-size="14.00" fill="#000000">False</text>
</g>
<!-- 3 -->
<g id="node3" class="node">
<title>3</title>
<path fill="#f0b48a" stroke="#000000" d="M140,-54.5C140,-54.5 12,-54.5 12,-54.5 6,-54.5 0,-48.5 0,-42.5 0,-42.5 0,-13.5 0,-13.5 0,-7.5 6,-1.5 12,-1.5 12,-1.5 140,-1.5 140,-1.5 146,-1.5 152,-7.5 152,-13.5 152,-13.5 152,-42.5 152,-42.5 152,-48.5 146,-54.5 140,-54.5"/>
<text text-anchor="start" x="8" y="-39.3" font-family="Helvetica,sans-Serif" font-size="14.00" fill="#000000">squared_error = 0.37</text>
<text text-anchor="start" x="15.5" y="-24.3" font-family="Helvetica,sans-Serif" font-size="14.00" fill="#000000">samples = 155724</text>
<text text-anchor="start" x="36" y="-9.3" font-family="Helvetica,sans-Serif" font-size="14.00" fill="#000000">value = 9.97</text>
</g>
<!-- 1&#45;&gt;3 -->
<g id="edge2" class="edge">
<title>1&#45;&gt;3</title>
<path fill="none" stroke="#000000" d="M291.7151,-215.799C243.4114,-173.7464 161.9747,-102.8486 114.182,-61.2408"/>
<polygon fill="#000000" stroke="#000000" points="116.3649,-58.5006 106.5244,-54.5742 111.7685,-63.7802 116.3649,-58.5006"/>
</g>
<!-- 4 -->
<g id="node4" class="node">
<title>4</title>
<path fill="#e78a48" stroke="#000000" d="M395,-173C395,-173 267,-173 267,-173 261,-173 255,-167 255,-161 255,-161 255,-117 255,-117 255,-111 261,-105 267,-105 267,-105 395,-105 395,-105 401,-105 407,-111 407,-117 407,-117 407,-161 407,-161 407,-167 401,-173 395,-173"/>
<text text-anchor="start" x="273.5" y="-157.8" font-family="Helvetica,sans-Serif" font-size="14.00" fill="#000000">ProductSize ≤ 4.5</text>
<text text-anchor="start" x="263" y="-142.8" font-family="Helvetica,sans-Serif" font-size="14.00" fill="#000000">squared_error = 0.37</text>
<text text-anchor="start" x="270.5" y="-127.8" font-family="Helvetica,sans-Serif" font-size="14.00" fill="#000000">samples = 205123</text>
<text text-anchor="start" x="291" y="-112.8" font-family="Helvetica,sans-Serif" font-size="14.00" fill="#000000">value = 10.4</text>
</g>
<!-- 1&#45;&gt;4 -->
<g id="edge3" class="edge">
<title>1&#45;&gt;4</title>
<path fill="none" stroke="#000000" d="M331,-215.7906C331,-205.5568 331,-194.1846 331,-183.3961"/>
<polygon fill="#000000" stroke="#000000" points="334.5001,-183.2875 331,-173.2875 327.5001,-183.2875 334.5001,-183.2875"/>
</g>
<!-- 5 -->
<g id="node5" class="node">
<title>5</title>
<path fill="#e58139" stroke="#000000" d="M310,-54.5C310,-54.5 182,-54.5 182,-54.5 176,-54.5 170,-48.5 170,-42.5 170,-42.5 170,-13.5 170,-13.5 170,-7.5 176,-1.5 182,-1.5 182,-1.5 310,-1.5 310,-1.5 316,-1.5 322,-7.5 322,-13.5 322,-13.5 322,-42.5 322,-42.5 322,-48.5 316,-54.5 310,-54.5"/>
<text text-anchor="start" x="178" y="-39.3" font-family="Helvetica,sans-Serif" font-size="14.00" fill="#000000">squared_error = 0.31</text>
<text text-anchor="start" x="185.5" y="-24.3" font-family="Helvetica,sans-Serif" font-size="14.00" fill="#000000">samples = 182403</text>
<text text-anchor="start" x="206" y="-9.3" font-family="Helvetica,sans-Serif" font-size="14.00" fill="#000000">value = 10.5</text>
</g>
<!-- 4&#45;&gt;5 -->
<g id="edge4" class="edge">
<title>4&#45;&gt;5</title>
<path fill="none" stroke="#000000" d="M304.8036,-104.7906C294.5432,-91.3917 282.7885,-76.0414 272.499,-62.6046"/>
<polygon fill="#000000" stroke="#000000" points="275.1668,-60.3316 266.3081,-54.52 269.6091,-64.5875 275.1668,-60.3316"/>
</g>
<!-- 6 -->
<g id="node6" class="node">
<title>6</title>
<path fill="#f7d6bf" stroke="#000000" d="M480,-54.5C480,-54.5 352,-54.5 352,-54.5 346,-54.5 340,-48.5 340,-42.5 340,-42.5 340,-13.5 340,-13.5 340,-7.5 346,-1.5 352,-1.5 352,-1.5 480,-1.5 480,-1.5 486,-1.5 492,-7.5 492,-13.5 492,-13.5 492,-42.5 492,-42.5 492,-48.5 486,-54.5 480,-54.5"/>
<text text-anchor="start" x="348" y="-39.3" font-family="Helvetica,sans-Serif" font-size="14.00" fill="#000000">squared_error = 0.17</text>
<text text-anchor="start" x="360" y="-24.3" font-family="Helvetica,sans-Serif" font-size="14.00" fill="#000000">samples = 22720</text>
<text text-anchor="start" x="376" y="-9.3" font-family="Helvetica,sans-Serif" font-size="14.00" fill="#000000">value = 9.62</text>
</g>
<!-- 4&#45;&gt;6 -->
<g id="edge5" class="edge">
<title>4&#45;&gt;6</title>
<path fill="none" stroke="#000000" d="M357.1964,-104.7906C367.4568,-91.3917 379.2115,-76.0414 389.501,-62.6046"/>
<polygon fill="#000000" stroke="#000000" points="392.3909,-64.5875 395.6919,-54.52 386.8332,-60.3316 392.3909,-64.5875"/>
</g>
</g>
</svg>
